<svg viewBox="0 0 24 24" width="24" height="24" xmlns="http://www.w3.org/2000/svg">
  <path d="M11.2207 7.37364C12.0095 7.01102 12.8872 6.80316 13.8192 6.80321C17.2308 6.8034 20.009 9.57315 20.0088 12.9935C20.0087 16.4146 17.2395 19.1834 13.8185 19.1832C10.3993 19.183 7.63865 16.4058 7.63884 12.9929C7.63884 12.8836 7.64166 12.7749 7.64728 12.6669L8.73879 13.8329C8.86878 13.9729 9.04878 14.043 9.21878 14.043C9.37878 14.043 9.52878 13.993 9.63879 13.863C9.8988 13.613 9.91882 13.203 9.66884 12.943L7.47896 10.5929C7.20898 10.2929 6.73898 10.2928 6.45896 10.5928L4.26883 12.9427C4.01882 13.2027 4.0388 13.6127 4.29879 13.8627C4.55877 14.1127 4.96877 14.0927 5.21879 13.8327L6.34764 12.6271C6.34177 12.7485 6.33884 12.8705 6.33884 12.9928C6.33861 17.1199 9.67759 20.483 13.8184 20.4832C17.9574 20.4834 21.3086 17.1326 21.3088 12.9936C21.3091 8.85402 17.9476 5.50344 13.8192 5.50321C12.6913 5.50315 11.6289 5.75518 10.6777 6.19247C10.3515 6.34241 10.2086 6.72838 10.3586 7.05455C10.5085 7.38072 10.8945 7.52358 11.2207 7.37364Z" />
</svg>
